<?xml version="1.0" encoding="UTF-8" standalone="no"?>
<!DOCTYPE svg PUBLIC "-//W3C//DTD SVG 1.1//EN" "http://www.w3.org/Graphics/SVG/1.1/DTD/svg11.dtd">
<svg xmlns="http://www.w3.org/2000/svg" version="1.1" viewBox="0.00 0.00 98.00 98.00">
<g stroke-width="2.00" fill="none" stroke-linecap="butt">
<path stroke="#fea2a7" vector-effect="non-scaling-stroke" d="
  M 86.88 49.97
  A 38.65 38.65 0.0 0 0 48.23 11.32
  A 38.65 38.65 0.0 0 0 9.58 49.97
  A 38.65 38.65 0.0 0 0 48.23 88.62
  A 38.65 38.65 0.0 0 0 86.88 49.97"
/>
<path stroke="#fea2a7" vector-effect="non-scaling-stroke" d="
  M 38.22 37.17
  A 4.60 4.60 0.0 0 0 35.57 39.81
  L 24.94 67.36
  A 4.60 4.60 0.0 0 0 30.90 73.30
  L 58.40 62.57
  A 4.60 4.60 0.0 0 0 61.02 59.94
  L 71.59 32.62
  A 4.60 4.60 0.0 0 0 65.66 26.66
  L 38.22 37.17"
/>
<path stroke="#fea2a7" vector-effect="non-scaling-stroke" d="
  M 54.26 49.98
  A 6.04 6.04 0.0 0 0 48.22 43.94
  A 6.04 6.04 0.0 0 0 42.18 49.98
  A 6.04 6.04 0.0 0 0 48.22 56.02
  A 6.04 6.04 0.0 0 0 54.26 49.98"
/>
</g>
<path fill="#fd444e" d="
  M 95.81 50.01
  A 47.66 47.66 0.0 0 1 48.15 97.67
  A 47.66 47.66 0.0 0 1 0.49 50.01
  A 47.66 47.66 0.0 0 1 48.15 2.35
  A 47.66 47.66 0.0 0 1 95.81 50.01
  Z
  M 86.88 49.97
  A 38.65 38.65 0.0 0 0 48.23 11.32
  A 38.65 38.65 0.0 0 0 9.58 49.97
  A 38.65 38.65 0.0 0 0 48.23 88.62
  A 38.65 38.65 0.0 0 0 86.88 49.97
  Z"
/>
<path fill="#ffffff" d="
  M 86.88 49.97
  A 38.65 38.65 0.0 0 1 48.23 88.62
  A 38.65 38.65 0.0 0 1 9.58 49.97
  A 38.65 38.65 0.0 0 1 48.23 11.32
  A 38.65 38.65 0.0 0 1 86.88 49.97
  Z
  M 38.22 37.17
  A 4.60 4.60 0.0 0 0 35.57 39.81
  L 24.94 67.36
  A 4.60 4.60 0.0 0 0 30.90 73.30
  L 58.40 62.57
  A 4.60 4.60 0.0 0 0 61.02 59.94
  L 71.59 32.62
  A 4.60 4.60 0.0 0 0 65.66 26.66
  L 38.22 37.17
  Z"
/>
<path fill="#fd444e" d="
  M 38.22 37.17
  L 65.66 26.66
  A 4.60 4.60 0.0 0 1 71.59 32.62
  L 61.02 59.94
  A 4.60 4.60 0.0 0 1 58.40 62.57
  L 30.90 73.30
  A 4.60 4.60 0.0 0 1 24.94 67.36
  L 35.57 39.81
  A 4.60 4.60 0.0 0 1 38.22 37.17
  Z
  M 54.26 49.98
  A 6.04 6.04 0.0 0 0 48.22 43.94
  A 6.04 6.04 0.0 0 0 42.18 49.98
  A 6.04 6.04 0.0 0 0 48.22 56.02
  A 6.04 6.04 0.0 0 0 54.26 49.98
  Z"
/>
<circle fill="#ffffff" cx="48.22" cy="49.98" r="6.04"/>
</svg>
